<svg width="126" height="33" xmlns="http://www.w3.org/2000/svg">
	<defs>
		<linearGradient id="gradient" x1="0" y1="0" x2="100%" y2="100%">
			<stop offset="0%" stop-color="#80F3E6"/>
			<stop offset="40%" stop-color="#EDF0A6"/>
			<stop offset="80%" stop-color="#D79024"/>
		</linearGradient>
	</defs>
	<path d="M5,31 L5,15 L15,5 L35,5 L40,7 L105,7 L40,7 L52.5,12 L111.5,12 L121.5,8
			 M8,17 L17,8
			 M104.5,7 A2,2 0 1,0 104.5,6.8
			 M121,7.2 A2,2 0 1,0 121,6.8 M121,7.2 A2,2 0 0,1 121,6.8
			 M4.8,28 A2,2 0 1,0 5.2,28
			 M4.8,28.5 A1.5,1.5 0 1,0 5.2,28.5
			 M4.8,29 A1,1 0 1,0 5.2,29" fill="none" stroke-width="1" stroke="url(#gradient)"/>
</svg>